<svg width="17" height="17" viewBox="0 0 17 17" fill="none" xmlns="http://www.w3.org/2000/svg">
<circle cx="8.5" cy="8.5" r="8" stroke="black"/>
<path d="M16 8.5C16 10.4166 15.1049 12.2946 13.6997 13.6997C12.2946 15.1049 10.4166 16 8.5 16C6.5834 16 4.7054 15.1049 3.30025 13.6997C1.89511 12.2946 1 10.4166 1 8.5C1 6.5834 1.89511 4.7054 3.30025 3.30025C4.7054 1.89511 6.5834 1 8.5 1C10.4166 1 12.2946 1.89511 13.6997 3.30025C15.1049 4.7054 16 6.5834 16 8.5Z" stroke="white"/>
<path d="M15.5 8.49485C15.5 10.2945 14.6606 12.046 13.3559 13.3508C12.0512 14.6555 10.2997 15.4948 8.5 15.4948C6.70033 15.4948 4.94883 14.6555 3.6441 13.3508C2.33937 12.046 1.5 10.2945 1.5 8.49485C1.5 6.69518 2.33937 4.94368 3.6441 3.63895C4.94883 2.33422 6.70033 1.49485 8.5 1.49485C10.2997 1.49485 12.0512 2.33422 13.3559 3.63895C14.6606 4.94368 15.5 6.69518 15.5 8.49485Z" stroke="black" stroke-width="0.5"/>
</svg>
